<?xml version="1.0" encoding="iso-8859-1"?>
<!-- Generator: Adobe Illustrator 16.0.0, SVG Export Plug-In . SVG Version: 6.00 Build 0)  -->
<!DOCTYPE svg PUBLIC "-//W3C//DTD SVG 1.1//EN" "http://www.w3.org/Graphics/SVG/1.1/DTD/svg11.dtd">
<svg version="1.1" id="Capa_1" xmlns="http://www.w3.org/2000/svg" xmlns:xlink="http://www.w3.org/1999/xlink" x="0px" y="0px"
	 width="600.148px" height="600.148px" viewBox="0 0 600.148 600.148" style="enable-background:new 0 0 600.148 600.148;"
	 xml:space="preserve">
<g>
	<g>
		<path d="M555.034,29.156C536.233,10.355,511.233,0,484.641,0s-51.588,10.355-70.389,29.153
			c-9.539,9.541-16.883,20.851-21.855,33.663c-15.766-9.624-33.672-14.664-52.088-14.664c-26.377,0-51.178,10.272-69.832,28.929
			c-38.789,38.789-38.813,101.889-0.07,140.711l24.835,25.943c0.055,0.058,0.052,0.229-0.003,0.285L21.372,517.89
			c-7.157,7.157-7.157,18.804,0,25.964l50.918,50.919c3.467,3.467,8.079,5.376,12.98,5.376c4.905,0,9.517-1.909,12.984-5.379
			l18.966-18.966c7.157-7.161,7.157-18.811,0-25.968L98.255,530.87l18.966-18.969l18.966,18.969
			c3.467,3.467,8.078,5.377,12.983,5.377s9.514-1.909,12.98-5.377l18.969-18.969c7.157-7.16,7.157-18.807,0-25.964l-18.966-18.966
			l17.573-17.577l17.776,17.775c3.467,3.468,8.078,5.38,12.983,5.38s9.517-1.912,12.983-5.38l18.966-18.966
			c7.158-7.16,7.158-18.807,0-25.967l-17.775-17.775l115.512-115.515l0.285-0.003l25.947,24.841
			c18.793,18.751,43.758,29.079,70.316,29.079c26.592,0,51.588-10.353,70.393-29.156c32.24-32.24,38.025-83.048,14.262-121.916
			c12.865-5.009,24.146-12.341,33.664-21.858C593.846,131.121,593.846,67.966,555.034,29.156z M366.329,172.93
			c-6.777,6.775-15.816,10.508-25.459,10.508c-9.639,0-18.682-3.733-25.459-10.511c-14.037-14.036-14.037-36.879,0-50.918
			c6.777-6.778,15.816-10.508,25.459-10.508s18.682,3.73,25.459,10.508C380.366,136.051,380.366,158.891,366.329,172.93z
			 M520.612,99.545c0,9.639-3.734,18.682-10.508,25.456c-6.779,6.778-15.818,10.511-25.461,10.511
			c-9.639,0-18.68-3.733-25.459-10.508c-6.777-6.778-10.508-15.817-10.508-25.459s3.734-18.681,10.508-25.456
			c6.779-6.778,15.818-10.511,25.459-10.511c9.643,0,18.682,3.733,25.461,10.511C516.877,80.864,520.612,89.906,520.612,99.545z
			 M472.686,243.319c0,9.639-3.734,18.681-10.508,25.456c-6.779,6.778-15.818,10.511-25.461,10.511
			c-9.641,0-18.68-3.733-25.459-10.511c-6.777-6.778-10.51-15.817-10.51-25.459c0-9.639,3.732-18.678,10.508-25.456
			c6.777-6.778,15.816-10.511,25.459-10.511c9.639,0,18.682,3.733,25.459,10.511C468.956,224.638,472.686,233.68,472.686,243.319z"
			/>
	</g>
</g>
<g>
</g>
<g>
</g>
<g>
</g>
<g>
</g>
<g>
</g>
<g>
</g>
<g>
</g>
<g>
</g>
<g>
</g>
<g>
</g>
<g>
</g>
<g>
</g>
<g>
</g>
<g>
</g>
<g>
</g>
</svg>
